<?xml version="1.0" encoding="UTF-8" standalone="no"?>
<!DOCTYPE svg PUBLIC "-//W3C//DTD SVG 1.1//EN"
 "http://www.w3.org/Graphics/SVG/1.1/DTD/svg11.dtd">
<!-- Generated by graphviz version 2.38.0 (20140413.2041)
 -->
<!-- Title: finite_state_machine Pages: 1 -->
<svg width="405pt" height="108pt"
 viewBox="0.00 0.00 404.67 108.00" xmlns="http://www.w3.org/2000/svg" xmlns:xlink="http://www.w3.org/1999/xlink">
<g id="graph0" class="graph" transform="scale(1 1) rotate(0) translate(4 104)">
<title>finite_state_machine</title>
<polygon fill="white" stroke="none" points="-4,4 -4,-104 400.669,-104 400.669,4 -4,4"/>
<!--   -->
<g id="node1" class="node"><title> </title>
<text text-anchor="middle" x="27" y="-26.8" font-family="Times,serif" font-size="14.00"> </text>
</g>
<!-- 0 -->
<g id="node2" class="node"><title>0</title>
<ellipse fill="none" stroke="black" cx="109" cy="-31" rx="18" ry="18"/>
<text text-anchor="middle" x="109" y="-26.8" font-family="Times,serif" font-size="14.00">0</text>
</g>
<!--  &#45;&gt;0 -->
<g id="edge1" class="edge"><title> &#45;&gt;0</title>
<path fill="none" stroke="black" d="M54.195,-31C62.6538,-31 72.0513,-31 80.5951,-31"/>
<polygon fill="black" stroke="black" points="80.8257,-34.5001 90.8257,-31 80.8257,-27.5001 80.8257,-34.5001"/>
</g>
<!-- 0&#45;&gt;0 -->
<g id="edge2" class="edge"><title>0&#45;&gt;0</title>
<path fill="none" stroke="black" d="M102.621,-48.0373C101.319,-57.8579 103.445,-67 109,-67 112.472,-67 114.604,-63.4289 115.398,-58.3529"/>
<polygon fill="black" stroke="black" points="118.897,-58.031 115.379,-48.0373 111.897,-58.0435 118.897,-58.031"/>
<text text-anchor="middle" x="109" y="-69.8" font-family="Times,serif" font-size="14.00">0/0</text>
</g>
<!-- 2 -->
<g id="node3" class="node"><title>2</title>
<ellipse fill="none" stroke="black" cx="198.89" cy="-31" rx="18" ry="18"/>
<text text-anchor="middle" x="198.89" y="-26.8" font-family="Times,serif" font-size="14.00">2</text>
</g>
<!-- 0&#45;&gt;2 -->
<g id="edge3" class="edge"><title>0&#45;&gt;2</title>
<path fill="none" stroke="black" d="M127.364,-31C139.722,-31 156.573,-31 170.704,-31"/>
<polygon fill="black" stroke="black" points="170.861,-34.5001 180.861,-31 170.861,-27.5001 170.861,-34.5001"/>
<text text-anchor="middle" x="153.945" y="-33.8" font-family="Times,serif" font-size="14.00">1/0</text>
</g>
<!-- 1 -->
<g id="node4" class="node"><title>1</title>
<ellipse fill="none" stroke="black" cx="288.779" cy="-48" rx="18" ry="18"/>
<text text-anchor="middle" x="288.779" y="-43.8" font-family="Times,serif" font-size="14.00">1</text>
</g>
<!-- 2&#45;&gt;1 -->
<g id="edge6" class="edge"><title>2&#45;&gt;1</title>
<path fill="none" stroke="black" d="M215.16,-38.9883C221.148,-41.732 228.182,-44.4906 234.89,-46 242.993,-47.8235 251.968,-48.6086 260.188,-48.8613"/>
<polygon fill="black" stroke="black" points="260.401,-52.3627 270.424,-48.9293 260.447,-45.3628 260.401,-52.3627"/>
<text text-anchor="middle" x="243.834" y="-50.8" font-family="Times,serif" font-size="14.00">0/1</text>
</g>
<!-- 3 -->
<g id="node5" class="node"><title>3</title>
<ellipse fill="none" stroke="black" cx="378.669" cy="-18" rx="18" ry="18"/>
<text text-anchor="middle" x="378.669" y="-13.8" font-family="Times,serif" font-size="14.00">3</text>
</g>
<!-- 2&#45;&gt;3 -->
<g id="edge7" class="edge"><title>2&#45;&gt;3</title>
<path fill="none" stroke="black" d="M215.556,-24.0398C229.673,-18.1721 251.164,-10.2304 270.779,-7 297.988,-2.51917 329.411,-6.87994 351.112,-11.366"/>
<polygon fill="black" stroke="black" points="350.402,-14.7936 360.922,-13.5401 351.917,-7.95937 350.402,-14.7936"/>
<text text-anchor="middle" x="288.779" y="-9.8" font-family="Times,serif" font-size="14.00">1/0</text>
</g>
<!-- 1&#45;&gt;2 -->
<g id="edge5" class="edge"><title>1&#45;&gt;2</title>
<path fill="none" stroke="black" d="M272.581,-39.4076C266.601,-36.4722 259.554,-33.5424 252.779,-32 244.685,-30.1573 235.713,-29.4912 227.492,-29.4005"/>
<polygon fill="black" stroke="black" points="227.198,-25.9046 217.255,-29.5623 227.309,-32.9038 227.198,-25.9046"/>
<text text-anchor="middle" x="243.834" y="-34.8" font-family="Times,serif" font-size="14.00">1/0</text>
</g>
<!-- 1&#45;&gt;3 -->
<g id="edge4" class="edge"><title>1&#45;&gt;3</title>
<path fill="none" stroke="black" d="M306.311,-42.3572C319.159,-37.9718 337.211,-31.8097 351.944,-26.7808"/>
<polygon fill="black" stroke="black" points="353.175,-30.0589 361.509,-23.5161 350.914,-23.4342 353.175,-30.0589"/>
<text text-anchor="middle" x="333.724" y="-37.8" font-family="Times,serif" font-size="14.00">0/0</text>
</g>
<!-- 3&#45;&gt;3 -->
<g id="edge8" class="edge"><title>3&#45;&gt;3</title>
<path fill="none" stroke="black" d="M374.714,-35.7817C374.042,-45.3149 375.36,-54 378.669,-54 380.685,-54 381.962,-50.7749 382.5,-46.0981"/>
<polygon fill="black" stroke="black" points="386.004,-45.823 382.624,-35.7817 379.004,-45.7391 386.004,-45.823"/>
<text text-anchor="middle" x="378.669" y="-56.8" font-family="Times,serif" font-size="14.00">0/1</text>
</g>
<!-- 3&#45;&gt;3 -->
<g id="edge9" class="edge"><title>3&#45;&gt;3</title>
<path fill="none" stroke="black" d="M372.293,-34.8636C368.422,-52.3779 370.548,-72 378.669,-72 385.267,-72 387.908,-59.0463 386.59,-44.7944"/>
<polygon fill="black" stroke="black" points="390.041,-44.2068 385.045,-34.8636 383.124,-45.2827 390.041,-44.2068"/>
<text text-anchor="middle" x="378.669" y="-74.8" font-family="Times,serif" font-size="14.00">1/1</text>
</g>
</g>
</svg>
