<?xml version="1.0" encoding="UTF-8" standalone="no"?>
<!DOCTYPE svg PUBLIC "-//W3C//DTD SVG 1.1//EN"
 "http://www.w3.org/Graphics/SVG/1.1/DTD/svg11.dtd">
<!-- Generated by graphviz version 2.38.0 (20140413.2041)
 -->
<!-- Title: finite_state_machine Pages: 1 -->
<svg width="230pt" height="338pt"
 viewBox="0.00 0.00 229.77 338.14" xmlns="http://www.w3.org/2000/svg" xmlns:xlink="http://www.w3.org/1999/xlink">
<g id="graph0" class="graph" transform="scale(1 1) rotate(0) translate(4 334.142)">
<title>finite_state_machine</title>
<polygon fill="white" stroke="none" points="-4,4 -4,-334.142 225.771,-334.142 225.771,4 -4,4"/>
<!-- final -->
<g id="node1" class="node"><title>final</title>
<ellipse fill="none" stroke="black" cx="29.829" cy="-29.829" rx="25.6818" ry="25.6818"/>
<ellipse fill="none" stroke="black" cx="29.829" cy="-29.829" rx="29.659" ry="29.659"/>
<text text-anchor="middle" x="29.829" y="-25.629" font-family="Times,serif" font-size="14.00">final</text>
</g>
<!--   -->
<g id="node2" class="node"><title> </title>
<text text-anchor="middle" x="29.829" y="-91.629" font-family="Times,serif" font-size="14.00"> </text>
</g>
<!-- start -->
<g id="node7" class="node"><title>start</title>
<ellipse fill="none" stroke="black" cx="196.439" cy="-95.829" rx="25.166" ry="25.166"/>
<text text-anchor="middle" x="196.439" y="-91.629" font-family="Times,serif" font-size="14.00">start</text>
</g>
<!--  &#45;&gt;start -->
<g id="edge3" class="edge"><title> &#45;&gt;start</title>
<path fill="none" stroke="black" d="M56.9119,-95.829C84.9704,-95.829 129.728,-95.829 160.741,-95.829"/>
<polygon fill="black" stroke="black" points="161.088,-99.3291 171.088,-95.829 161.088,-92.3291 161.088,-99.3291"/>
</g>
<!-- A -->
<g id="node3" class="node"><title>A</title>
<ellipse fill="none" stroke="black" cx="29.829" cy="-158.829" rx="27.0958" ry="27.0958"/>
<text text-anchor="middle" x="29.829" y="-154.629" font-family="Times,serif" font-size="14.00">from</text>
</g>
<!-- B -->
<g id="node4" class="node"><title>B</title>
<ellipse fill="none" stroke="black" cx="196.439" cy="-158.829" rx="18" ry="18"/>
<text text-anchor="middle" x="196.439" y="-154.629" font-family="Times,serif" font-size="14.00">to</text>
</g>
<!-- A&#45;&gt;B -->
<g id="edge1" class="edge"><title>A&#45;&gt;B</title>
<path fill="none" stroke="black" d="M57.2764,-158.829C87.6813,-158.829 137.342,-158.829 168.112,-158.829"/>
<polygon fill="black" stroke="black" points="168.146,-162.329 178.146,-158.829 168.146,-155.329 168.146,-162.329"/>
<text text-anchor="middle" x="115.382" y="-161.629" font-family="Times,serif" font-size="14.00">input / output</text>
</g>
<!-- X -->
<g id="node5" class="node"><title>X</title>
<ellipse fill="none" stroke="black" cx="29.829" cy="-231.829" rx="27.0958" ry="27.0958"/>
<text text-anchor="middle" x="29.829" y="-227.629" font-family="Times,serif" font-size="14.00">from</text>
</g>
<!-- Y -->
<g id="node6" class="node"><title>Y</title>
<ellipse fill="none" stroke="black" cx="196.439" cy="-231.829" rx="18" ry="18"/>
<text text-anchor="middle" x="196.439" y="-227.629" font-family="Times,serif" font-size="14.00">to</text>
</g>
<!-- X&#45;&gt;Y -->
<g id="edge2" class="edge"><title>X&#45;&gt;Y</title>
<path fill="none" stroke="black" d="M57.2764,-231.829C87.6813,-231.829 137.342,-231.829 168.112,-231.829"/>
<polygon fill="black" stroke="black" points="168.146,-235.329 178.146,-231.829 168.146,-228.329 168.146,-235.329"/>
<text text-anchor="middle" x="115.382" y="-234.629" font-family="Times,serif" font-size="14.00">input</text>
</g>
<!-- state -->
<g id="node8" class="node"><title>state</title>
<ellipse fill="none" stroke="black" cx="29.829" cy="-303.829" rx="26.1266" ry="26.1266"/>
<text text-anchor="middle" x="29.829" y="-299.629" font-family="Times,serif" font-size="14.00">state</text>
</g>
</g>
</svg>
