<?xml version="1.0" encoding="UTF-8" standalone="no"?>
<!DOCTYPE svg PUBLIC "-//W3C//DTD SVG 1.1//EN"
 "http://www.w3.org/Graphics/SVG/1.1/DTD/svg11.dtd">
<!-- Generated by graphviz version 2.38.0 (20140413.2041)
 -->
<!-- Title: finite_state_machine Pages: 1 -->
<svg width="351pt" height="251pt"
 viewBox="0.00 0.00 350.88 251.50" xmlns="http://www.w3.org/2000/svg" xmlns:xlink="http://www.w3.org/1999/xlink">
<g id="graph0" class="graph" transform="scale(1 1) rotate(0) translate(199.234 128.045)">
<title>finite_state_machine</title>
<polygon fill="white" stroke="none" points="-199.234,123.451 -199.234,-128.045 151.651,-128.045 151.651,123.451 -199.234,123.451"/>
<!--   -->
<g id="node1" class="node"><title> </title>
<text text-anchor="middle" x="-168.234" y="23.2551" font-family="Times,serif" font-size="14.00"> </text>
</g>
<!-- 0 -->
<g id="node2" class="node"><title>0</title>
<ellipse fill="none" stroke="black" cx="-90.5422" cy="9.36993" rx="18" ry="18"/>
<text text-anchor="middle" x="-90.5422" y="13.5699" font-family="Times,serif" font-size="14.00">0</text>
</g>
<!--  &#45;&gt;0 -->
<g id="edge1" class="edge"><title> &#45;&gt;0</title>
<path fill="none" stroke="black" d="M-141.061,15.6677C-133.888,14.7734 -126.129,13.8062 -118.894,12.9044"/>
<polygon fill="black" stroke="black" points="-119.157,9.41004 -108.8,11.646 -118.291,16.3563 -119.157,9.41004"/>
</g>
<!-- 1 -->
<g id="node3" class="node"><title>1</title>
<ellipse fill="none" stroke="black" cx="-61.149" cy="-68.1075" rx="18" ry="18"/>
<text text-anchor="middle" x="-61.149" y="-63.9075" font-family="Times,serif" font-size="14.00">1</text>
</g>
<!-- 0&#45;&gt;1 -->
<g id="edge2" class="edge"><title>0&#45;&gt;1</title>
<path fill="none" stroke="black" d="M-84.0189,-7.82483C-80.2254,-17.8242 -75.3666,-30.6316 -71.1038,-41.8678"/>
<polygon fill="black" stroke="black" points="-74.3726,-43.1191 -67.553,-51.2274 -67.8277,-40.6361 -74.3726,-43.1191"/>
<text text-anchor="middle" x="-109.239" y="-27.6463" font-family="Times,serif" font-size="14.00">/ green, red</text>
</g>
<!-- 2 -->
<g id="node4" class="node"><title>2</title>
<ellipse fill="none" stroke="black" cx="10.21" cy="-106.045" rx="18" ry="18"/>
<text text-anchor="middle" x="10.21" y="-101.845" font-family="Times,serif" font-size="14.00">2</text>
</g>
<!-- 1&#45;&gt;2 -->
<g id="edge3" class="edge"><title>1&#45;&gt;2</title>
<path fill="none" stroke="black" d="M-44.9566,-76.7161C-36.1066,-81.421 -24.9492,-87.3527 -14.988,-92.6485"/>
<polygon fill="black" stroke="black" points="-16.3912,-95.8663 -5.91842,-97.4702 -13.1052,-89.6855 -16.3912,-95.8663"/>
<text text-anchor="middle" x="1.70545" y="-73.4823" font-family="Times,serif" font-size="14.00">/ green, red</text>
</g>
<!-- 3 -->
<g id="node5" class="node"><title>3</title>
<ellipse fill="none" stroke="black" cx="88.6259" cy="-84.2276" rx="18" ry="18"/>
<text text-anchor="middle" x="88.6259" y="-80.0276" font-family="Times,serif" font-size="14.00">3</text>
</g>
<!-- 2&#45;&gt;3 -->
<g id="edge4" class="edge"><title>2&#45;&gt;3</title>
<path fill="none" stroke="black" d="M27.613,-101.203C37.5622,-98.4346 50.258,-94.9024 61.4894,-91.7775"/>
<polygon fill="black" stroke="black" points="62.5756,-95.1084 71.2715,-89.0559 60.6993,-88.3645 62.5756,-95.1084"/>
<text text-anchor="middle" x="79.2812" y="-99.2901" font-family="Times,serif" font-size="14.00">/ yellow, red</text>
</g>
<!-- 4 -->
<g id="node6" class="node"><title>4</title>
<ellipse fill="none" stroke="black" cx="129.651" cy="-13.8273" rx="18" ry="18"/>
<text text-anchor="middle" x="129.651" y="-9.62731" font-family="Times,serif" font-size="14.00">4</text>
</g>
<!-- 3&#45;&gt;4 -->
<g id="edge5" class="edge"><title>3&#45;&gt;4</title>
<path fill="none" stroke="black" d="M97.7306,-68.6035C102.936,-59.6713 109.578,-48.2732 115.454,-38.1899"/>
<polygon fill="black" stroke="black" points="118.561,-39.81 120.571,-29.4077 112.513,-36.2856 118.561,-39.81"/>
<text text-anchor="middle" x="74.9145" y="-42.1967" font-family="Times,serif" font-size="14.00">/ red, green</text>
</g>
<!-- 5 -->
<g id="node7" class="node"><title>5</title>
<ellipse fill="none" stroke="black" cx="104.324" cy="63.6036" rx="18" ry="18"/>
<text text-anchor="middle" x="104.324" y="67.8036" font-family="Times,serif" font-size="14.00">5</text>
</g>
<!-- 4&#45;&gt;5 -->
<g id="edge6" class="edge"><title>4&#45;&gt;5</title>
<path fill="none" stroke="black" d="M124.03,3.35712C120.817,13.1813 116.716,25.7177 113.089,36.808"/>
<polygon fill="black" stroke="black" points="116.365,38.0508 109.929,46.4672 109.712,35.8746 116.365,38.0508"/>
<text text-anchor="middle" x="86.8816" y="17.2826" font-family="Times,serif" font-size="14.00">/ red, green</text>
</g>
<!-- 6 -->
<g id="node8" class="node"><title>6</title>
<ellipse fill="none" stroke="black" cx="32.2996" cy="101.451" rx="18" ry="18"/>
<text text-anchor="middle" x="32.2996" y="105.651" font-family="Times,serif" font-size="14.00">6</text>
</g>
<!-- 5&#45;&gt;6 -->
<g id="edge7" class="edge"><title>5&#45;&gt;6</title>
<path fill="none" stroke="black" d="M88.3396,72.0032C79.2014,76.8051 67.5403,82.9328 57.2243,88.3536"/>
<polygon fill="black" stroke="black" points="58.7199,91.5215 48.2395,93.0749 55.4637,85.3249 58.7199,91.5215"/>
<text text-anchor="middle" x="41.1043" y="77.3784" font-family="Times,serif" font-size="14.00">/ red, green</text>
</g>
<!-- 7 -->
<g id="node9" class="node"><title>7</title>
<ellipse fill="none" stroke="black" cx="-45.1852" cy="78.7274" rx="18" ry="18"/>
<text text-anchor="middle" x="-45.1852" y="82.9274" font-family="Times,serif" font-size="14.00">7</text>
</g>
<!-- 6&#45;&gt;7 -->
<g id="edge8" class="edge"><title>6&#45;&gt;7</title>
<path fill="none" stroke="black" d="M14.7171,96.2947C5.1074,93.4765 -7.0078,89.9235 -17.8241,86.7514"/>
<polygon fill="black" stroke="black" points="-19.0614,90.0361 -27.6723,83.8633 -17.0915,83.319 -19.0614,90.0361"/>
<text text-anchor="middle" x="-36.7381" y="102.723" font-family="Times,serif" font-size="14.00">/ red, yellow</text>
</g>
<!-- 7&#45;&gt;0 -->
<g id="edge9" class="edge"><title>7&#45;&gt;0</title>
<path fill="none" stroke="black" d="M-55.2514,63.3347C-61.0062,54.5348 -68.3497,43.3056 -74.8461,33.3716"/>
<polygon fill="black" stroke="black" points="-77.9602,35.0045 -80.5042,24.7196 -72.1017,31.1732 -77.9602,35.0045"/>
<text text-anchor="middle" x="-96.7265" y="45.5532" font-family="Times,serif" font-size="14.00">/ green, red</text>
</g>
</g>
</svg>
