<?xml version="1.0" encoding="UTF-8" standalone="no"?>
<!DOCTYPE svg PUBLIC "-//W3C//DTD SVG 1.1//EN"
 "http://www.w3.org/Graphics/SVG/1.1/DTD/svg11.dtd">
<!-- Generated by graphviz version 2.38.0 (20140413.2041)
 -->
<!-- Title: finite_state_machine Pages: 1 -->
<svg width="576pt" height="233pt"
 viewBox="0.00 0.00 576.00 232.58" xmlns="http://www.w3.org/2000/svg" xmlns:xlink="http://www.w3.org/1999/xlink">
<g id="graph0" class="graph" transform="scale(0.475516 0.475516) rotate(0) translate(4 485.108)">
<title>finite_state_machine</title>
<polygon fill="white" stroke="none" points="-4,4 -4,-485.108 1207.31,-485.108 1207.31,4 -4,4"/>
<!-- 0 cents -->
<g id="node1" class="node"><title>0 cents</title>
<ellipse fill="none" stroke="black" cx="129.91" cy="-193.108" rx="34.8294" ry="34.8294"/>
<ellipse fill="none" stroke="black" cx="129.91" cy="-193.108" rx="38.8202" ry="38.8202"/>
<text text-anchor="middle" x="129.91" y="-188.908" font-family="Times,serif" font-size="14.00">0 cents</text>
</g>
<!-- 0 cents&#45;&gt;0 cents -->
<g id="edge4" class="edge"><title>0 cents&#45;&gt;0 cents</title>
<path fill="none" stroke="black" d="M119.441,-230.6C119.803,-241.542 123.293,-250.018 129.91,-250.018 134.253,-250.018 137.248,-246.368 138.897,-240.766"/>
<polygon fill="black" stroke="black" points="142.399,-241 140.379,-230.6 135.473,-239.99 142.399,-241"/>
<text text-anchor="middle" x="129.91" y="-252.818" font-family="Times,serif" font-size="14.00">quarter / vend</text>
</g>
<!-- 5 cents -->
<g id="node3" class="node"><title>5 cents</title>
<ellipse fill="none" stroke="black" cx="449.728" cy="-260.108" rx="34.8202" ry="34.8202"/>
<text text-anchor="middle" x="449.728" y="-255.908" font-family="Times,serif" font-size="14.00">5 cents</text>
</g>
<!-- 0 cents&#45;&gt;5 cents -->
<g id="edge2" class="edge"><title>0 cents&#45;&gt;5 cents</title>
<path fill="none" stroke="black" d="M156.95,-221.445C165.657,-229.163 175.938,-236.624 186.82,-241.108 258.739,-270.748 351.136,-269.318 404.765,-265.068"/>
<polygon fill="black" stroke="black" points="405.295,-268.535 414.957,-264.189 404.693,-261.561 405.295,-268.535"/>
<text text-anchor="middle" x="267.289" y="-270.908" font-family="Times,serif" font-size="14.00">nickel</text>
</g>
<!-- 10 cents -->
<g id="node4" class="node"><title>10 cents</title>
<ellipse fill="none" stroke="black" cx="821.605" cy="-190.108" rx="39.1641" ry="39.1641"/>
<text text-anchor="middle" x="821.605" y="-185.908" font-family="Times,serif" font-size="14.00">10 cents</text>
</g>
<!-- 0 cents&#45;&gt;10 cents -->
<g id="edge3" class="edge"><title>0 cents&#45;&gt;10 cents</title>
<path fill="none" stroke="black" d="M168.973,-192.943C286.24,-192.433 641.928,-190.886 772.16,-190.319"/>
<polygon fill="black" stroke="black" points="772.25,-193.819 782.235,-190.275 772.22,-186.819 772.25,-193.819"/>
<text text-anchor="middle" x="449.728" y="-194.908" font-family="Times,serif" font-size="14.00">dime</text>
</g>
<!--   -->
<g id="node2" class="node"><title> </title>
<text text-anchor="middle" x="27" y="-188.908" font-family="Times,serif" font-size="14.00"> </text>
</g>
<!--  &#45;&gt;0 cents -->
<g id="edge1" class="edge"><title> &#45;&gt;0 cents</title>
<path fill="none" stroke="black" d="M54.2495,-193.108C62.311,-193.108 71.4529,-193.108 80.5066,-193.108"/>
<polygon fill="black" stroke="black" points="80.6288,-196.609 90.6287,-193.108 80.6287,-189.609 80.6288,-196.609"/>
</g>
<!-- 5 cents&#45;&gt;0 cents -->
<g id="edge7" class="edge"><title>5 cents&#45;&gt;0 cents</title>
<path fill="none" stroke="black" d="M417.48,-246.504C397.824,-238.49 371.728,-228.832 347.758,-223.108 277.703,-206.381 257.972,-215.291 186.82,-204.108 183.98,-203.662 181.064,-203.175 178.126,-202.663"/>
<polygon fill="black" stroke="black" points="178.596,-199.191 168.131,-200.845 177.343,-206.078 178.596,-199.191"/>
<text text-anchor="middle" x="267.289" y="-225.908" font-family="Times,serif" font-size="14.00">quarter / vend, return 5 cents</text>
</g>
<!-- 5 cents&#45;&gt;10 cents -->
<g id="edge5" class="edge"><title>5 cents&#45;&gt;10 cents</title>
<path fill="none" stroke="black" d="M483.834,-252.12C503.5,-247.486 528.96,-241.682 551.697,-237.108 593.099,-228.78 707.178,-209.27 772.68,-198.182"/>
<polygon fill="black" stroke="black" points="773.481,-201.597 782.757,-196.478 772.313,-194.695 773.481,-201.597"/>
<text text-anchor="middle" x="635.666" y="-239.908" font-family="Times,serif" font-size="14.00">nickel</text>
</g>
<!-- 15 cents -->
<g id="node5" class="node"><title>15 cents</title>
<ellipse fill="none" stroke="black" cx="1015.11" cy="-265.108" rx="39.1641" ry="39.1641"/>
<text text-anchor="middle" x="1015.11" y="-260.908" font-family="Times,serif" font-size="14.00">15 cents</text>
</g>
<!-- 5 cents&#45;&gt;15 cents -->
<g id="edge6" class="edge"><title>5 cents&#45;&gt;15 cents</title>
<path fill="none" stroke="black" d="M484.701,-260.41C580.575,-261.261 853.514,-263.683 965.382,-264.676"/>
<polygon fill="black" stroke="black" points="965.663,-268.178 975.694,-264.767 965.725,-261.179 965.663,-268.178"/>
<text text-anchor="middle" x="821.605" y="-266.908" font-family="Times,serif" font-size="14.00">dime</text>
</g>
<!-- 10 cents&#45;&gt;0 cents -->
<g id="edge10" class="edge"><title>10 cents&#45;&gt;0 cents</title>
<path fill="none" stroke="black" d="M782.263,-186.805C703.976,-180.493 520.107,-167.875 365.758,-174.108 300.835,-176.73 226.062,-183.414 178.659,-188.109"/>
<polygon fill="black" stroke="black" points="178.282,-184.629 168.681,-189.108 178.98,-191.594 178.282,-184.629"/>
<text text-anchor="middle" x="449.728" y="-176.908" font-family="Times,serif" font-size="14.00">quarter / vend, return 10 cents</text>
</g>
<!-- 10 cents&#45;&gt;15 cents -->
<g id="edge8" class="edge"><title>10 cents&#45;&gt;15 cents</title>
<path fill="none" stroke="black" d="M859.51,-201.541C886.955,-210.379 925.142,-223.387 957.781,-237.108 961.972,-238.87 966.289,-240.799 970.581,-242.795"/>
<polygon fill="black" stroke="black" points="969.344,-246.083 979.877,-247.23 972.358,-239.765 969.344,-246.083"/>
<text text-anchor="middle" x="940.677" y="-239.908" font-family="Times,serif" font-size="14.00">nickel</text>
</g>
<!-- 20 cents -->
<g id="node6" class="node"><title>20 cents</title>
<ellipse fill="none" stroke="black" cx="1163.98" cy="-103.108" rx="39.1641" ry="39.1641"/>
<text text-anchor="middle" x="1163.98" y="-98.9084" font-family="Times,serif" font-size="14.00">20 cents</text>
</g>
<!-- 10 cents&#45;&gt;20 cents -->
<g id="edge9" class="edge"><title>10 cents&#45;&gt;20 cents</title>
<path fill="none" stroke="black" d="M860.005,-180.549C922.343,-164.615 1047.38,-132.657 1115.72,-115.189"/>
<polygon fill="black" stroke="black" points="1116.96,-118.485 1125.78,-112.617 1115.22,-111.703 1116.96,-118.485"/>
<text text-anchor="middle" x="1015.11" y="-153.908" font-family="Times,serif" font-size="14.00">dime</text>
</g>
<!-- 15 cents&#45;&gt;0 cents -->
<g id="edge12" class="edge"><title>15 cents&#45;&gt;0 cents</title>
<path fill="none" stroke="black" d="M996.079,-299.99C986.731,-314.227 973.87,-329.184 957.781,-337.108 650.392,-488.503 469.046,-531.42 186.82,-337.108 155.892,-315.814 142.07,-274.737 135.895,-241.887"/>
<polygon fill="black" stroke="black" points="139.338,-241.26 134.213,-231.987 132.437,-242.432 139.338,-241.26"/>
<text text-anchor="middle" x="635.666" y="-469.908" font-family="Times,serif" font-size="14.00">dime / vend</text>
</g>
<!-- 15 cents&#45;&gt;0 cents -->
<g id="edge13" class="edge"><title>15 cents&#45;&gt;0 cents</title>
<path fill="none" stroke="black" d="M977.038,-275.351C970.656,-276.818 964.057,-278.152 957.781,-279.108 697.431,-318.786 628.783,-317.304 365.758,-304.108 285.929,-300.103 254.333,-328.896 186.82,-286.108 169.475,-275.116 156.765,-256.624 147.887,-239.012"/>
<polygon fill="black" stroke="black" points="151.029,-237.47 143.589,-229.927 144.701,-240.463 151.029,-237.47"/>
<text text-anchor="middle" x="635.666" y="-315.908" font-family="Times,serif" font-size="14.00">quarter / vend, return 15 cents</text>
</g>
<!-- 15 cents&#45;&gt;20 cents -->
<g id="edge11" class="edge"><title>15 cents&#45;&gt;20 cents</title>
<path fill="none" stroke="black" d="M1045.42,-239.188C1063.74,-222.449 1087.43,-199.814 1106.65,-178.108 1116.29,-167.219 1126.07,-154.798 1134.7,-143.24"/>
<polygon fill="black" stroke="black" points="1137.65,-145.136 1140.77,-135.011 1132.02,-140.981 1137.65,-145.136"/>
<text text-anchor="middle" x="1089.55" y="-215.908" font-family="Times,serif" font-size="14.00">nickel</text>
</g>
<!-- 20 cents&#45;&gt;0 cents -->
<g id="edge14" class="edge"><title>20 cents&#45;&gt;0 cents</title>
<path fill="none" stroke="black" d="M1124.67,-101.521C992.47,-96.9396 543.991,-88.8364 186.82,-171.108 183.148,-171.954 179.399,-172.999 175.668,-174.171"/>
<polygon fill="black" stroke="black" points="174.225,-170.965 165.898,-177.516 176.493,-177.588 174.225,-170.965"/>
<text text-anchor="middle" x="821.605" y="-106.908" font-family="Times,serif" font-size="14.00">nickel / vend</text>
</g>
<!-- 20 cents&#45;&gt;0 cents -->
<g id="edge15" class="edge"><title>20 cents&#45;&gt;0 cents</title>
<path fill="none" stroke="black" d="M1129.08,-84.4903C1100,-70.2745 1056.52,-53.1084 1016.11,-53.1084 448.728,-53.1084 448.728,-53.1084 448.728,-53.1084 326.347,-53.1084 291.439,-74.6114 186.82,-138.108 178.528,-143.141 170.522,-149.631 163.285,-156.378"/>
<polygon fill="black" stroke="black" points="160.456,-154.249 155.756,-163.744 165.352,-159.253 160.456,-154.249"/>
<text text-anchor="middle" x="821.605" y="-55.9084" font-family="Times,serif" font-size="14.00">dime / vend, return 5 cents</text>
</g>
<!-- 20 cents&#45;&gt;0 cents -->
<g id="edge16" class="edge"><title>20 cents&#45;&gt;0 cents</title>
<path fill="none" stroke="black" d="M1138.58,-72.8337C1111.91,-43.4011 1066.24,-3.1084 1016.11,-3.1084 448.728,-3.1084 448.728,-3.1084 448.728,-3.1084 329.785,-3.1084 278.359,17.8385 186.82,-58.1084 160.798,-79.6978 146.717,-115.401 139.197,-144.669"/>
<polygon fill="black" stroke="black" points="135.715,-144.181 136.801,-154.72 142.524,-145.804 135.715,-144.181"/>
<text text-anchor="middle" x="821.605" y="-5.9084" font-family="Times,serif" font-size="14.00">quarter / vend, return 20 cents</text>
</g>
</g>
</svg>
